<?xml version="1.0" encoding="UTF-8" standalone="no"?>
<!DOCTYPE svg PUBLIC "-//W3C//DTD SVG 1.1//EN" "http://www.w3.org/Graphics/SVG/1.1/DTD/svg11.dtd">
<svg xmlns="http://www.w3.org/2000/svg" version="1.1" viewBox="0 0 636 161">
<g stroke-width="2.0" fill="none" stroke-linecap="butt">
<path stroke="#272829" vector-effect="non-scaling-stroke" d="
  M 389.00 77.96
  Q 388.48 78.14 388.55 78.55
  C 388.60 78.85 388.49 79.11 388.29 79.19
  Q 386.07 80.05 384.26 79.14
  Q 383.03 78.52 381.30 76.78
  Q 378.30 73.78 376.95 67.81
  C 376.89 67.52 376.63 67.32 376.33 67.31
  Q 373.42 67.26 370.51 68.02
  Q 369.20 68.37 369.46 69.75"
/>
<path stroke="#272829" vector-effect="non-scaling-stroke" d="
  M 274.00 30.96
  Q 271.56 30.86 269.94 32.69
  Q 268.18 34.67 268.69 36.06
  Q 269.23 37.55 268.00 37.46"
/>
<path stroke="#272829" vector-effect="non-scaling-stroke" d="
  M 254.79 41.00
  Q 256.06 38.15 253.69 36.74
  C 253.43 36.58 253.22 36.33 253.08 36.03
  Q 252.45 34.64 250.97 35.07
  C 250.70 35.15 250.37 35.14 250.05 35.02
  Q 249.30 34.76 248.50 35.21"
/>
</g>
<path fill="#252627" d="
  M 389.00 77.96
  Q 388.48 78.14 388.55 78.55
  C 388.60 78.85 388.49 79.11 388.29 79.19
  Q 386.07 80.05 384.26 79.14
  Q 383.03 78.52 381.30 76.78
  Q 378.30 73.78 376.95 67.81
  C 376.89 67.52 376.63 67.32 376.33 67.31
  Q 373.42 67.26 370.51 68.02
  Q 369.20 68.37 369.46 69.75
  L 331.74 30.85
  C 331.37 30.47 330.86 30.25 330.34 30.25
  L 317.25 30.25
  C 316.93 30.25 316.67 30.51 316.67 30.83
  L 316.75 44.54
  Q 316.78 48.00 313.27 48.00
  L 302.41 48.00
  C 301.44 48.00 300.50 47.62 299.81 46.94
  Q 296.14 43.34 292.43 39.37
  Q 292.36 39.29 290.60 37.62
  Q 287.68 34.85 287.79 30.69
  C 287.80 30.42 287.58 30.19 287.31 30.20
  Q 280.97 30.40 274.63 30.08
  Q 274.22 30.06 274.03 30.20
  Q 273.67 30.45 274.00 30.96
  Q 271.56 30.86 269.94 32.69
  Q 268.18 34.67 268.69 36.06
  Q 269.23 37.55 268.00 37.46
  L 264.14 32.78
  C 263.80 32.37 263.14 32.40 262.72 32.83
  L 254.79 41.00
  Q 256.06 38.15 253.69 36.74
  C 253.43 36.58 253.22 36.33 253.08 36.03
  Q 252.45 34.64 250.97 35.07
  C 250.70 35.15 250.37 35.14 250.05 35.02
  Q 249.30 34.76 248.50 35.21
  Q 253.02 30.13 257.94 25.44
  Q 259.67 23.78 260.88 22.83
  Q 262.25 21.75 264.46 21.67
  Q 276.01 21.22 286.79 21.65
  C 287.50 21.68 288.05 21.04 287.92 20.34
  Q 287.31 17.27 288.56 15.58
  Q 289.53 14.27 292.42 14.17
  Q 300.08 13.89 307.75 13.96
  Q 313.29 14.01 313.73 14.13
  Q 317.45 15.10 316.68 20.78
  C 316.62 21.19 316.96 21.56 317.40 21.57
  L 334.19 21.78
  C 334.50 21.78 334.80 21.92 335.04 22.16
  L 389.00 77.96
  Z
  M 294.15 20.94
  L 294.05 31.08
  C 294.04 31.74 294.38 32.47 294.97 33.10
  L 297.96 36.28
  Q 299.10 37.50 299.07 35.90
  Q 298.96 29.47 299.00 23.45
  Q 299.00 23.36 299.10 22.06
  Q 299.29 19.65 296.74 20.14
  Q 296.31 20.22 295.77 20.12
  Q 295.14 20.01 294.63 20.21
  C 294.35 20.31 294.16 20.60 294.15 20.94
  Z
  M 310.5016 20.4554
  C 310.50 20.31 310.38 20.19 310.2311 20.1859
  L 305.4711 20.1942
  C 305.32 20.19 305.20 20.32 305.2016 20.4646
  L 305.2384 41.5846
  C 305.24 41.73 305.36 41.85 305.5089 41.8541
  L 310.2689 41.8458
  C 310.42 41.85 310.54 41.72 310.5384 41.5754
  L 310.5016 20.4554
  Z"
/>
<path fill="#28292b" d="
  M 274.00 30.96
  Q 276.46 33.05 281.31 38.19
  Q 288.97 46.29 318.90 77.14
  C 319.12 77.37 319.43 77.50 319.75 77.50
  L 376.17 77.68
  Q 377.19 77.68 376.46 76.93
  L 369.46 69.75
  Q 369.20 68.37 370.51 68.02
  Q 373.42 67.26 376.33 67.31
  C 376.63 67.32 376.89 67.52 376.95 67.81
  Q 378.30 73.78 381.30 76.78
  Q 383.03 78.52 384.26 79.14
  Q 386.07 80.05 388.29 79.19
  C 388.49 79.11 388.60 78.85 388.55 78.55
  Q 388.48 78.14 389.00 77.96
  Q 392.51 81.23 390.30 84.14
  Q 389.14 85.67 386.47 85.96
  Q 381.28 86.51 376.05 86.33
  C 375.77 86.32 375.53 86.54 375.53 86.82
  L 375.65 94.94
  C 375.65 95.23 375.44 95.46 375.19 95.46
  L 369.82 95.46
  C 369.53 95.46 369.30 95.23 369.30 94.95
  L 369.30 86.94
  C 369.30 86.66 369.09 86.43 368.82 86.43
  L 329.26 86.26
  C 328.98 86.25 328.75 86.48 328.75 86.77
  L 328.75 94.98
  C 328.75 95.27 328.52 95.50 328.23 95.50
  L 323.04 95.50
  C 322.75 95.50 322.51 95.27 322.52 94.99
  L 322.62 87.42
  C 322.63 86.63 321.97 86.02 321.23 86.14
  Q 318.54 86.56 316.43 85.93
  Q 314.81 85.44 312.68 83.27
  Q 292.61 62.71 272.84 41.86
  C 272.65 41.66 272.34 41.66 272.15 41.86
  L 232.92 82.45
  C 232.68 82.70 232.54 83.01 232.54 83.31
  L 232.66 94.94
  C 232.67 95.22 232.45 95.45 232.19 95.45
  L 226.75 95.50
  C 226.47 95.50 226.25 95.28 226.25 95.00
  L 226.25 86.92
  C 226.25 86.55 225.95 86.24 225.58 86.25
  Q 218.50 86.29 211.82 86.22
  Q 208.25 86.19 206.61 84.95
  Q 204.17 83.10 205.70 80.07
  Q 206.32 78.83 208.49 76.56
  Q 228.34 55.73 248.50 35.21
  Q 249.30 34.76 250.05 35.02
  C 250.37 35.14 250.70 35.15 250.97 35.07
  Q 252.45 34.64 253.08 36.03
  C 253.22 36.33 253.43 36.58 253.69 36.74
  Q 256.06 38.15 254.79 41.00
  L 219.60 77.15
  Q 219.24 77.52 219.75 77.51
  L 229.06 77.35
  C 229.37 77.34 229.67 77.20 229.91 76.95
  L 268.00 37.46
  Q 269.23 37.55 268.69 36.06
  Q 268.18 34.67 269.94 32.69
  Q 271.56 30.86 274.00 30.96
  Z"
/>
<path fill="#28292b" d="
  M 106.20 76.47
  C 106.63 76.48 107.04 76.76 107.25 77.19
  Q 108.99 80.90 107.39 84.73
  C 107.27 85.01 107.00 85.21 106.69 85.25
  Q 97.10 86.46 87.49 85.25
  C 87.09 85.20 86.79 84.88 86.75 84.48
  Q 86.26 78.97 86.34 73.44
  Q 86.46 64.14 86.46 64.06
  Q 86.38 50.49 86.73 37.42
  Q 86.78 35.52 88.73 35.50
  L 106.70 35.31
  C 107.28 35.30 107.76 35.71 107.78 36.23
  L 108.00 42.41
  C 108.03 43.28 107.25 44.00 106.28 44.00
  L 97.18 44.00
  C 96.31 44.00 95.60 44.65 95.57 45.48
  L 95.24 53.17
  C 95.21 53.90 95.85 54.52 96.66 54.53
  L 106.32 54.66
  C 106.62 54.66 106.90 54.85 107.01 55.15
  Q 108.21 58.25 107.11 61.97
  C 106.93 62.58 106.37 63.00 105.73 63.00
  L 96.36 63.00
  C 95.94 63.00 95.59 63.31 95.58 63.71
  L 95.28 75.35
  C 95.26 75.85 95.71 76.27 96.27 76.28
  L 106.20 76.47
  Z"
/>
<path fill="#28292b" d="
  M 541.57 37.84
  Q 547.58 33.57 555.26 36.98
  C 555.74 37.19 556.03 37.67 556.01 38.19
  Q 555.86 41.72 553.99 44.29
  C 553.82 44.54 553.50 44.64 553.20 44.56
  Q 551.89 44.20 550.65 43.65
  Q 549.14 42.98 548.09 43.04
  Q 543.59 43.27 543.50 48.00
  Q 543.42 52.19 547.36 55.13
  Q 551.21 57.99 554.30 61.57
  Q 557.91 65.76 559.05 69.64
  Q 560.78 75.57 557.40 80.38
  Q 554.24 84.85 548.66 85.93
  Q 543.54 86.91 537.69 85.06
  Q 535.46 84.36 535.16 82.74
  Q 535.02 81.98 535.42 79.75
  Q 535.75 77.91 536.60 76.90
  C 537.20 76.19 538.25 76.08 538.98 76.64
  Q 541.46 78.53 543.72 78.98
  Q 546.08 79.44 548.52 77.83
  Q 552.50 75.19 550.79 70.74
  Q 549.97 68.60 546.66 65.61
  Q 542.89 62.21 539.55 58.40
  Q 536.51 54.94 535.89 51.77
  Q 535.08 47.63 536.73 43.80
  Q 538.28 40.17 541.57 37.84
  Z"
/>
<path fill="#28292b" d="
  M 566.19 72.18
  Q 566.50 55.79 566.74 39.39
  Q 566.74 39.33 566.68 38.11
  Q 566.55 35.39 569.50 35.42
  Q 577.63 35.50 586.46 35.50
  C 587.17 35.50 587.75 36.08 587.75 36.79
  L 587.75 42.34
  C 587.75 43.13 587.08 43.78 586.23 43.80
  L 576.57 44.01
  C 576.27 44.02 576.00 44.23 575.89 44.54
  Q 574.38 48.97 575.33 53.57
  C 575.39 53.88 575.65 54.10 575.94 54.11
  L 585.68 54.34
  C 586.03 54.35 586.33 54.49 586.49 54.72
  Q 588.35 57.44 587.13 61.39
  C 586.89 62.20 586.14 62.75 585.30 62.75
  L 576.92 62.75
  C 576.14 62.75 575.48 63.33 575.38 64.10
  Q 574.53 70.14 575.36 75.33
  C 575.40 75.61 575.64 75.83 575.93 75.84
  L 586.01 76.25
  C 586.81 76.28 587.45 76.82 587.47 77.49
  L 587.67 83.41
  C 587.70 84.37 586.87 85.19 585.80 85.26
  Q 577.13 85.84 568.34 85.26
  C 567.57 85.21 566.94 84.62 566.85 83.85
  Q 566.09 77.60 566.19 72.18
  Z"
/>
<path fill="#28292b" d="
  M 60.54 68.05
  L 60.52 84.54
  Q 60.52 86.50 58.59 86.50
  L 53.90 86.50
  Q 51.99 86.50 51.99 84.57
  L 52.07 38.07
  Q 52.07 35.75 54.36 35.75
  Q 59.62 35.75 64.00 35.81
  Q 68.39 35.87 71.64 38.17
  Q 74.54 40.22 76.11 44.28
  Q 80.28 55.06 70.24 63.56
  C 69.68 64.04 69.53 64.86 69.87 65.55
  L 79.44 85.08
  C 79.75 85.71 79.29 86.44 78.59 86.44
  L 71.13 86.44
  C 70.71 86.44 70.32 86.17 70.12 85.76
  L 61.68 67.80
  Q 60.54 65.37 60.54 68.05
  Z
  M 66.06 45.19
  Q 63.59 42.78 60.95 44.75
  C 60.70 44.94 60.56 45.24 60.55 45.56
  L 60.50 58.35
  C 60.50 58.83 60.87 59.24 61.35 59.29
  Q 63.63 59.52 65.44 58.29
  Q 66.93 57.28 67.96 55.19
  Q 70.65 49.65 66.06 45.19
  Z"
/>
<path fill="#28292b" d="
  M 123.31 58.32
  L 123.53 84.57
  C 123.54 85.50 122.80 86.25 121.88 86.25
  L 115.47 86.25
  C 115.06 86.25 114.74 85.92 114.75 85.52
  Q 115.23 63.25 114.75 41.00
  Q 114.69 38.20 115.45 36.63
  C 115.58 36.35 115.85 36.14 116.18 36.06
  Q 119.17 35.34 122.20 35.95
  C 122.51 36.01 122.76 36.23 122.88 36.52
  L 134.37 63.98
  C 134.52 64.32 134.75 64.57 135.01 64.68
  Q 135.71 64.98 135.57 64.09
  Q 135.50 63.59 135.49 63.40
  Q 135.11 50.69 134.99 37.06
  C 134.98 36.38 135.51 35.83 136.17 35.82
  L 141.88 35.76
  C 142.77 35.75 143.50 36.48 143.50 37.38
  L 143.45 84.94
  C 143.45 85.27 143.31 85.58 143.07 85.76
  Q 142.19 86.42 141.03 86.40
  Q 139.74 86.37 138.97 86.41
  Q 137.80 86.48 136.77 86.01
  Q 135.89 85.61 135.37 84.43
  Q 129.76 71.68 124.44 58.81
  Q 124.25 58.35 123.76 58.04
  Q 123.30 57.75 123.31 58.32
  Z"
/>
<path fill="#28292b" d="
  M 158.73 44.24
  Q 156.30 43.44 153.51 43.81
  Q 149.99 44.26 150.30 40.73
  Q 150.45 39.03 150.55 37.43
  C 150.61 36.48 151.39 35.75 152.34 35.75
  L 174.69 35.81
  C 175.02 35.81 175.32 35.96 175.48 36.22
  Q 176.15 37.28 176.14 38.57
  Q 176.12 40.73 176.13 40.93
  Q 176.26 44.83 171.72 44.19
  Q 170.37 44.00 168.09 44.00
  C 167.63 44.00 167.25 44.38 167.25 44.85
  L 166.97 85.11
  C 166.96 85.60 166.64 86.03 166.17 86.19
  Q 163.03 87.24 159.65 85.99
  C 159.37 85.89 159.18 85.62 159.17 85.31
  Q 158.69 65.16 159.25 44.98
  C 159.26 44.65 159.05 44.35 158.73 44.24
  Z"
/>
<path fill="#28292b" d="
  M 439.69 55.69
  L 439.54 39.02
  Q 439.52 37.05 441.20 36.13
  Q 442.64 35.34 446.96 35.96
  C 447.82 36.08 448.47 36.80 448.50 37.66
  Q 448.90 48.12 448.57 58.49
  Q 448.18 71.00 448.75 83.51
  Q 448.88 86.27 446.18 86.25
  L 441.34 86.21
  C 440.74 86.20 440.25 85.70 440.25 85.07
  L 440.25 66.73
  Q 440.25 64.75 438.27 64.75
  L 430.23 64.75
  C 429.57 64.75 429.02 65.27 428.97 65.93
  Q 428.50 73.03 428.95 80.53
  Q 428.96 80.59 429.10 81.98
  Q 429.52 86.12 426.01 86.37
  Q 423.60 86.54 422.01 86.00
  Q 419.90 85.28 420.10 82.57
  Q 420.25 80.47 420.25 80.42
  Q 420.25 58.84 420.25 37.49
  C 420.25 36.53 421.03 35.75 421.99 35.75
  L 427.35 35.75
  C 428.23 35.75 428.94 36.47 428.93 37.34
  L 428.74 55.24
  C 428.73 55.75 429.11 56.19 429.62 56.25
  Q 434.67 56.84 439.19 56.25
  C 439.48 56.22 439.70 55.97 439.69 55.69
  Z"
/>
<path fill="#28292b" d="
  M 456.48 51.69
  Q 458.51 42.01 466.12 37.99
  Q 472.68 34.53 479.67 36.84
  Q 487.19 39.32 490.31 47.44
  Q 493.53 55.79 492.21 65.20
  Q 491.19 72.50 489.00 76.55
  Q 486.07 81.98 479.81 84.81
  Q 475.28 86.87 470.82 85.68
  Q 460.54 82.95 457.43 72.81
  Q 454.24 62.39 456.48 51.69
  Z
  M 474.0211 78.3800
  C 479.99 78.37 484.82 70.38 484.8000 60.5411
  C 484.78 50.70 479.93 42.73 473.9589 42.7400
  C 467.99 42.75 463.16 50.74 463.1800 60.5789
  C 463.20 70.42 468.05 78.39 474.0211 78.3800
  Z"
/>
<path fill="#28292b" d="
  M 527.56 66.29
  Q 527.52 69.61 527.40 72.92
  Q 527.25 76.91 526.03 79.34
  Q 522.23 86.91 513.00 86.25
  Q 503.52 85.57 500.69 78.03
  Q 499.50 74.87 499.50 64.84
  Q 499.50 51.21 499.50 37.26
  C 499.50 36.81 499.78 36.41 500.20 36.26
  Q 501.88 35.66 503.72 35.66
  Q 506.58 35.65 506.78 35.67
  Q 508.84 35.91 508.58 38.43
  Q 508.48 39.47 508.47 39.59
  Q 507.76 54.41 507.97 69.25
  Q 508.02 72.25 509.42 74.60
  Q 510.96 77.17 513.67 77.22
  Q 517.05 77.29 518.31 73.31
  Q 519.22 70.45 519.56 66.79
  Q 519.77 64.57 519.63 60.20
  Q 519.26 48.69 519.67 37.18
  C 519.68 36.87 519.86 36.60 520.14 36.47
  Q 523.05 35.15 525.70 35.67
  Q 528.13 36.14 528.23 38.62
  Q 528.58 47.70 527.98 56.36
  Q 527.61 61.84 527.56 66.29
  Z"
/>
<path fill="#28292b" d="
  M 276.70 88.05
  L 267.52 88.01
  C 267.23 88.01 267.00 88.24 267.00 88.53
  L 267.00 94.45
  C 267.00 94.97 266.62 95.39 266.15 95.39
  L 261.75 95.35
  C 261.47 95.35 261.23 95.09 261.20 94.76
  Q 260.64 89.28 261.25 83.80
  C 261.29 83.47 261.45 83.19 261.70 83.00
  Q 263.61 81.55 266.05 81.65
  Q 267.86 81.73 267.96 81.73
  Q 274.55 81.60 280.28 81.94
  Q 283.54 82.14 283.49 85.25
  L 283.34 94.82
  C 283.34 95.11 283.12 95.36 282.82 95.41
  Q 281.96 95.55 281.10 95.54
  Q 280.58 95.54 279.40 95.63
  Q 276.55 95.84 277.25 92.50
  Q 277.43 91.65 277.22 88.57
  C 277.20 88.28 276.98 88.05 276.70 88.05
  Z"
/>
<rect fill="#28292b" x="206.26" y="99.76" width="183.72" height="6.24" rx="3.09"/>
<path fill="#233135" fill-opacity="0.882" d="
  M 291.72 138.73
  C 291.72 141.07 289.82 142.97 287.48 142.97
  L 285.72 142.97
  C 283.38 142.97 281.48 141.07 281.48 138.73
  L 281.48 132.01
  C 281.48 129.67 283.38 127.77 285.72 127.77
  L 287.48 127.77
  C 289.82 127.77 291.72 129.67 291.72 132.01
  L 291.72 138.73
  Z
  M 289.9521 130.7049
  C 290.08 130.55 289.82 130.11 289.3668 129.7357
  C 288.91 129.36 288.44 129.18 288.3079 129.3351
  C 288.18 129.49 288.44 129.93 288.8932 130.3043
  C 289.35 130.68 289.82 130.86 289.9521 130.7049
  Z
  M 288.7053 132.7163
  C 288.70 131.65 287.84 130.79 286.7720 130.7897
  L 286.3920 130.7903
  C 285.33 130.79 284.46 131.66 284.4653 132.7237
  L 284.4747 138.0837
  C 284.48 139.15 285.34 140.01 286.4080 140.0103
  L 286.7880 140.0097
  C 287.85 140.01 288.72 139.14 288.7147 138.0763
  L 288.7053 132.7163
  Z"
/>
<path fill="#172927" fill-opacity="0.965" d="
  M 303.75 133.76
  L 303.97 133.74
  C 304.10 133.73 304.19 133.61 304.20 133.46
  Q 304.29 131.73 304.21 130.00
  Q 304.07 126.90 306.61 127.98
  C 306.89 128.10 307.07 128.37 307.09 128.69
  Q 307.60 139.41 307.25 141.50
  Q 306.89 143.65 305.14 142.74
  Q 304.37 142.33 303.86 141.28
  Q 302.74 138.96 301.85 136.53
  C 301.74 136.23 301.44 136.07 301.21 136.19
  Q 300.72 136.45 300.81 137.19
  Q 301.15 139.88 300.89 141.81
  C 300.85 142.13 300.65 142.41 300.37 142.55
  Q 297.94 143.72 298.03 140.74
  Q 298.20 134.78 298.30 128.81
  C 298.31 128.47 298.46 128.17 298.71 128.01
  Q 299.60 127.45 300.50 127.86
  Q 301.12 128.14 301.55 129.07
  Q 302.49 131.12 303.18 133.28
  C 303.28 133.58 303.52 133.78 303.75 133.76
  Z
  M 305.07 136.48
  Q 305.87 138.44 305.34 135.49
  Q 305.16 134.46 304.78 135.03
  Q 304.59 135.31 305.07 136.48
  Z
  M 304.59 138.51
  Q 304.07 138.88 304.58 139.70
  Q 306.63 142.95 305.43 138.80
  C 305.33 138.44 304.90 138.29 304.59 138.51
  Z"
/>
<path fill="#010201" fill-opacity="0.949" d="
  M 317.81 139.96
  L 320.76 140.01
  C 321.12 140.02 321.44 140.13 321.62 140.32
  Q 322.39 141.12 321.92 142.24
  C 321.81 142.52 321.52 142.70 321.19 142.70
  L 314.84 142.74
  C 314.41 142.74 314.07 142.40 314.06 141.97
  L 314.00 129.00
  C 313.99 128.66 314.12 128.34 314.35 128.14
  Q 315.50 127.12 316.65 128.14
  C 316.85 128.32 316.97 128.63 316.98 128.99
  L 317.27 139.45
  C 317.28 139.73 317.52 139.96 317.81 139.96
  Z"
/>
<rect fill="#010201" fill-opacity="0.949" x="327.75" y="127.81" width="3.00" height="14.96" rx="0.78"/>
<path fill="#010201" fill-opacity="0.949" d="
  M 343.34 133.69
  L 343.65 128.68
  C 343.67 128.37 343.86 128.10 344.14 127.98
  Q 346.69 126.91 346.64 130.00
  Q 346.55 135.97 346.45 141.94
  C 346.44 142.27 346.26 142.55 345.99 142.66
  Q 345.08 143.03 344.25 142.64
  Q 343.65 142.37 343.18 141.46
  Q 341.12 137.49 341.00 136.50
  Q 340.88 135.51 340.06 136.31
  Q 339.31 137.06 340.25 140.75
  Q 340.84 143.05 338.18 142.71
  C 337.79 142.66 337.50 142.33 337.50 141.94
  L 337.55 128.82
  C 337.56 128.49 337.72 128.19 337.98 128.03
  Q 340.03 126.79 340.94 129.06
  Q 342.29 132.46 343.05 133.77
  Q 343.31 134.22 343.34 133.69
  Z
  M 344.27 139.41
  Q 344.02 140.57 344.45 140.86
  C 344.69 141.01 345.04 140.83 345.16 140.49
  Q 345.46 139.70 344.79 139.21
  C 344.60 139.07 344.32 139.17 344.27 139.41
  Z"
/>
<path fill="#010201" fill-opacity="0.949" d="
  M 356.81 139.95
  L 360.19 140.05
  C 360.53 140.06 360.84 140.21 361.00 140.45
  Q 361.56 141.28 361.17 142.24
  C 361.07 142.50 360.78 142.67 360.44 142.69
  L 354.23 143.00
  C 353.73 143.03 353.31 142.65 353.31 142.18
  L 353.25 128.83
  C 353.24 128.24 353.73 127.75 354.34 127.75
  L 360.25 127.75
  C 360.57 127.75 360.86 127.93 360.98 128.20
  Q 362.29 131.09 357.55 130.97
  C 356.84 130.95 356.20 131.40 355.98 132.08
  Q 355.30 134.14 357.74 133.91
  Q 359.17 133.78 359.73 134.06
  Q 361.08 134.74 359.82 136.37
  C 359.64 136.60 359.33 136.71 359.00 136.67
  Q 355.31 136.14 356.17 139.45
  C 356.25 139.74 356.51 139.94 356.81 139.95
  Z
  M 355.21 130.51
  Q 356.72 129.43 358.70 129.62
  Q 359.19 129.67 358.72 129.51
  Q 356.77 128.84 354.78 129.41
  C 354.48 129.50 354.28 129.77 354.28 130.07
  L 354.24 141.12
  C 354.24 141.18 354.31 141.22 354.38 141.19
  L 354.50 141.12
  C 354.66 141.05 354.77 140.89 354.79 140.72
  Q 355.49 136.02 354.88 131.32
  C 354.84 130.99 354.96 130.68 355.21 130.51
  Z"
/>
<ellipse fill="#233135" fill-opacity="0.882" cx="0.00" cy="0.00" transform="translate(289.13,130.02) rotate(39.8)" rx="1.07" ry="0.37"/>
<path fill="#030300" fill-opacity="0.271" d="
  M 354.88 131.32
  Q 355.49 136.02 354.79 140.72
  C 354.77 140.89 354.66 141.05 354.50 141.12
  L 354.38 141.19
  C 354.31 141.22 354.24 141.18 354.24 141.12
  L 354.28 130.07
  C 354.28 129.77 354.48 129.50 354.78 129.41
  Q 356.77 128.84 358.72 129.51
  Q 359.19 129.67 358.70 129.62
  Q 356.72 129.43 355.21 130.51
  C 354.96 130.68 354.84 130.99 354.88 131.32
  Z"
/>
<path fill="#010201" fill-opacity="0.949" d="
  M 305.07 136.48
  Q 304.59 135.31 304.78 135.03
  Q 305.16 134.46 305.34 135.49
  Q 305.87 138.44 305.07 136.48
  Z"
/>
<path fill="#030300" fill-opacity="0.271" d="
  M 304.59 138.51
  C 304.90 138.29 305.33 138.44 305.43 138.80
  Q 306.63 142.95 304.58 139.70
  Q 304.07 138.88 304.59 138.51
  Z"
/>
<path fill="#030300" fill-opacity="0.271" d="
  M 344.27 139.41
  C 344.32 139.17 344.60 139.07 344.79 139.21
  Q 345.46 139.70 345.16 140.49
  C 345.04 140.83 344.69 141.01 344.45 140.86
  Q 344.02 140.57 344.27 139.41
  Z"
/>
</svg>
