<?xml version="1.0" encoding="UTF-8" standalone="no"?>
<!DOCTYPE svg PUBLIC "-//W3C//DTD SVG 1.1//EN" "http://www.w3.org/Graphics/SVG/1.1/DTD/svg11.dtd">
<svg xmlns="http://www.w3.org/2000/svg" version="1.1" viewBox="0 0 526 432">
<g stroke-width="2.0" fill="none" stroke-linecap="butt">
<path stroke="#888888" vector-effect="non-scaling-stroke" d="
  M 261.38 142.70
  Q 261.48 141.40 260.81 140.40
  C 260.64 140.15 260.34 139.98 260.00 139.95
  Q 256.06 139.61 252.11 139.72
  Q 252.04 139.72 250.41 139.66
  Q 247.52 139.55 248.00 142.74
  C 248.04 143.01 247.83 143.25 247.56 143.25
  Q 243.25 143.25 239.25 143.25
  Q 236.56 143.25 234.86 144.33
  Q 234.68 144.45 231.79 147.33
  Q 216.21 162.90 210.06 170.06
  Q 209.08 171.21 210.37 172.43
  C 210.59 172.64 210.90 172.77 211.24 172.81
  Q 215.56 173.33 217.00 173.00
  Q 220.26 172.24 219.43 175.81
  C 219.28 176.44 219.68 177.07 220.31 177.21
  Q 222.96 177.80 222.21 174.01
  Q 221.84 172.18 223.16 170.83
  L 240.57 152.91
  C 240.77 152.71 241.09 152.71 241.29 152.91
  Q 250.09 162.04 258.81 170.94
  Q 261.03 173.20 263.44 173.11
  C 263.71 173.10 263.94 173.30 263.95 173.56
  L 264.05 176.44
  C 264.06 176.75 264.25 177.02 264.54 177.12
  Q 267.72 178.24 266.97 174.35
  C 266.84 173.65 267.37 173.00 268.09 173.00
  L 284.15 173.00
  C 285.11 173.00 285.82 173.89 285.60 174.82
  Q 284.85 178.04 288.02 177.00
  C 288.31 176.90 288.51 176.59 288.52 176.23
  L 288.59 173.67
  C 288.60 173.39 288.84 173.16 289.17 173.12
  Q 290.86 172.93 292.55 172.96
  Q 293.82 172.99 294.42 172.72
  Q 295.55 172.20 295.61 171.04
  Q 295.67 170.05 294.58 168.91
  Q 282.54 156.19 270.11 143.85
  C 269.87 143.61 269.56 143.47 269.25 143.46
  L 261.81 143.18
  C 261.56 143.17 261.36 142.95 261.38 142.70"
/>
<path stroke="#888888" vector-effect="non-scaling-stroke" d="
  M 239.05 173.79
  L 242.60 173.75
  C 243.05 173.74 243.38 174.18 243.28 174.63
  Q 242.56 177.76 245.19 177.30
  C 245.50 177.25 245.75 177.01 245.82 176.71
  Q 246.42 174.29 245.72 171.91
  C 245.63 171.62 245.39 171.40 245.08 171.34
  Q 240.83 170.54 236.56 171.23
  C 236.24 171.28 235.97 171.48 235.86 171.76
  Q 235.52 172.56 235.47 173.42
  Q 235.42 174.20 235.37 175.57
  Q 235.28 178.07 237.96 177.12
  C 238.25 177.02 238.45 176.75 238.46 176.44
  L 238.54 174.31
  C 238.55 174.02 238.78 173.79 239.05 173.79"
/>
<path stroke="#888888" vector-effect="non-scaling-stroke" d="
  M 294.91 180.61
  C 294.91 179.84 294.28 179.21 293.51 179.21
  L 211.99 179.21
  C 211.22 179.21 210.59 179.84 210.59 180.61
  L 210.59 180.67
  C 210.59 181.44 211.22 182.07 211.99 182.07
  L 293.51 182.07
  C 294.28 182.07 294.91 181.44 294.91 180.67
  L 294.91 180.61"
/>
<path stroke="#888888" vector-effect="non-scaling-stroke" d="
  M 151.79 221.45
  Q 152.55 221.33 153.19 221.59
  Q 153.84 221.86 154.29 222.88
  Q 156.91 228.90 160.30 234.51
  C 160.47 234.78 160.77 234.92 161.05 234.84
  L 165.23 233.68
  C 165.64 233.56 165.83 233.08 165.62 232.70
  L 159.31 221.24
  C 159.10 220.87 159.19 220.40 159.52 220.14
  Q 164.47 216.34 163.81 211.19
  Q 163.31 207.24 160.95 205.23
  Q 159.18 203.73 155.16 203.41
  Q 151.05 203.08 146.28 203.31
  C 145.71 203.34 145.26 203.80 145.26 204.37
  L 145.43 233.56
  C 145.43 233.88 145.66 234.14 145.94 234.14
  L 150.57 234.14
  C 150.85 234.14 151.07 233.88 151.08 233.56
  L 151.31 222.06
  C 151.32 221.75 151.52 221.50 151.79 221.45"
/>
<path stroke="#888888" vector-effect="non-scaling-stroke" d="
  M 262.43 221.30
  L 262.67 233.56
  C 262.68 233.89 262.90 234.15 263.18 234.15
  L 267.75 234.10
  C 268.03 234.09 268.26 233.83 268.27 233.49
  Q 268.81 218.72 268.33 203.94
  C 268.32 203.62 268.09 203.37 267.82 203.36
  L 263.36 203.33
  C 262.89 203.33 262.50 203.75 262.50 204.26
  L 262.50 215.23
  C 262.50 215.52 262.27 215.75 261.98 215.75
  L 254.31 215.75
  C 254.00 215.75 253.75 215.50 253.75 215.19
  L 253.75 203.91
  C 253.75 203.55 253.45 203.25 253.09 203.25
  L 248.64 203.25
  C 248.15 203.25 247.75 203.64 247.76 204.12
  L 247.93 233.56
  C 247.93 233.88 248.16 234.14 248.44 234.14
  L 253.07 234.14
  C 253.35 234.14 253.58 233.88 253.59 233.55
  L 253.73 221.43
  C 253.74 221.05 254.03 220.75 254.38 220.76
  L 261.94 220.80
  C 262.21 220.80 262.43 221.02 262.43 221.30"
/>
<path stroke="#888888" vector-effect="non-scaling-stroke" d="
  M 224.27 228.94
  L 224.04 216.72
  C 224.03 216.22 224.51 215.84 225.03 215.95
  Q 230.02 217.03 229.62 212.69
  C 229.59 212.37 229.35 212.12 229.06 212.12
  L 224.75 212.05
  C 224.33 212.04 224.00 211.73 223.99 211.33
  L 223.95 205.56
  C 223.95 205.27 223.73 205.03 223.45 205.00
  Q 221.10 204.78 218.94 205.52
  C 218.51 205.67 218.21 206.12 218.20 206.65
  L 218.08 211.52
  C 218.07 211.78 217.81 211.96 217.51 211.92
  Q 212.72 211.23 214.54 215.54
  C 214.64 215.77 214.91 215.94 215.25 215.96
  L 217.77 216.14
  C 218.04 216.16 218.24 216.43 218.23 216.75
  Q 217.94 224.25 218.68 231.08
  Q 218.98 233.85 221.67 234.56
  Q 225.85 235.66 229.63 233.79
  C 229.91 233.65 230.09 233.37 230.09 233.07
  Q 230.09 231.50 229.12 229.44
  C 228.98 229.15 228.62 229.03 228.33 229.18
  Q 226.70 230.06 224.79 229.58
  C 224.49 229.50 224.28 229.24 224.27 228.94"
/>
<path stroke="#888888" vector-effect="non-scaling-stroke" d="
  M 175.05 224.55
  L 186.56 224.51
  C 187.03 224.51 187.41 224.15 187.44 223.68
  Q 187.70 218.76 185.76 215.38
  Q 183.63 211.65 179.33 211.22
  Q 176.18 210.91 173.51 212.68
  Q 171.21 214.20 169.96 217.11
  Q 167.91 221.90 169.17 227.32
  Q 170.89 234.75 178.50 235.00
  Q 182.47 235.13 186.12 233.07
  C 186.40 232.91 186.58 232.62 186.58 232.31
  Q 186.57 230.68 185.58 229.39
  C 185.39 229.15 185.07 229.04 184.76 229.11
  Q 183.33 229.44 181.91 229.84
  Q 180.13 230.33 179.04 230.26
  Q 174.50 229.94 174.55 225.06
  C 174.55 224.78 174.77 224.56 175.05 224.55"
/>
<path stroke="#888888" vector-effect="non-scaling-stroke" d="
  M 198.64 213.41
  Q 197.43 214.53 197.26 212.88
  Q 197.03 210.57 194.97 211.44
  Q 193.65 211.99 192.29 212.42
  C 192.02 212.51 191.85 212.78 191.90 213.06
  Q 192.73 217.92 192.50 223.50
  Q 192.32 227.85 192.66 233.57
  C 192.68 233.87 192.90 234.11 193.17 234.12
  L 197.69 234.23
  C 197.97 234.24 198.19 233.99 198.20 233.68
  Q 198.28 228.03 198.26 222.38
  Q 198.25 218.67 198.25 218.63
  Q 198.69 216.28 201.64 216.01
  Q 204.72 215.73 204.75 218.91
  L 204.92 233.56
  C 204.92 233.88 205.15 234.14 205.43 234.14
  L 209.82 234.14
  C 210.09 234.14 210.32 233.89 210.33 233.57
  Q 210.64 225.91 210.50 218.25
  Q 210.45 215.38 209.27 213.51
  Q 208.08 211.64 205.41 211.32
  Q 201.41 210.83 198.64 213.41"
/>
<path stroke="#888888" vector-effect="non-scaling-stroke" d="
  M 284.0900 235.1300
  C 289.56 235.13 293.99 229.74 293.9900 223.0800
  C 293.99 216.42 289.56 211.03 284.0900 211.0300
  C 278.62 211.03 274.19 216.42 274.1900 223.0800
  C 274.19 229.74 278.62 235.13 284.0900 235.1300"
/>
<path stroke="#888888" vector-effect="non-scaling-stroke" d="
  M 311.99 233.06
  Q 312.13 233.85 312.59 234.44
  C 312.78 234.68 313.10 234.80 313.44 234.76
  Q 315.50 234.52 317.26 233.46
  C 317.51 233.31 317.63 232.99 317.54 232.70
  Q 317.00 230.87 317.00 230.00
  Q 317.00 221.00 317.00 212.07
  C 317.00 211.71 316.71 211.42 316.40 211.48
  L 311.76 212.35
  C 311.50 212.40 311.31 212.70 311.30 213.06
  L 311.25 228.00
  C 311.25 228.34 311.12 228.65 310.89 228.86
  Q 308.64 230.98 306.18 229.95
  C 305.31 229.59 304.75 228.74 304.75 227.80
  L 304.75 212.24
  C 304.75 211.68 304.29 211.24 303.79 211.34
  L 299.55 212.16
  C 299.27 212.21 299.06 212.49 299.06 212.82
  Q 298.96 220.91 299.05 229.00
  Q 299.10 233.85 303.00 234.75
  Q 306.97 235.67 311.51 232.84
  C 311.70 232.72 311.95 232.84 311.99 233.06"
/>
<path stroke="#888888" vector-effect="non-scaling-stroke" d="
  M 323.94 214.19
  Q 319.60 220.92 326.87 224.32
  Q 328.40 225.04 329.93 225.74
  Q 331.56 226.49 332.12 227.34
  Q 333.05 228.74 331.65 229.84
  Q 330.83 230.49 329.54 230.43
  Q 326.53 230.27 323.86 228.81
  C 323.60 228.67 323.28 228.72 323.11 228.93
  Q 321.95 230.34 322.02 232.19
  C 322.03 232.49 322.22 232.78 322.51 232.93
  Q 326.33 234.93 330.00 235.00
  Q 333.68 235.07 335.86 232.67
  Q 337.83 230.50 337.62 227.25
  Q 337.27 221.86 331.19 220.56
  Q 327.66 219.81 327.98 217.06
  C 328.01 216.75 328.21 216.48 328.51 216.36
  Q 331.80 214.96 335.05 216.52
  C 335.34 216.66 335.67 216.62 335.88 216.43
  Q 337.25 215.13 337.07 213.24
  C 337.04 212.94 336.84 212.67 336.54 212.55
  Q 333.30 211.17 329.75 211.27
  Q 325.74 211.39 323.94 214.19"
/>
<path stroke="#888888" vector-effect="non-scaling-stroke" d="
  M 344.44 214.19
  Q 339.93 219.99 341.86 227.58
  Q 343.65 234.60 351.01 234.83
  Q 355.06 234.95 358.56 233.25
  C 359.09 232.99 359.39 232.41 359.28 231.82
  Q 358.57 227.96 355.46 229.35
  Q 348.80 232.32 346.99 225.71
  C 346.83 225.13 347.25 224.56 347.85 224.55
  L 359.59 224.50
  C 359.95 224.50 360.24 224.22 360.25 223.86
  Q 360.28 220.80 359.64 218.17
  Q 357.86 210.88 350.26 211.35
  Q 346.46 211.59 344.44 214.19"
/>
<path stroke="#ffffff" vector-effect="non-scaling-stroke" d="
  M 420.51 219.92
  C 420.51 219.85 420.46 219.80 420.39 219.80
  L 420.37 219.80
  C 420.30 219.80 420.25 219.85 420.25 219.92
  L 420.25 285.84
  C 420.25 285.91 420.30 285.96 420.37 285.96
  L 420.39 285.96
  C 420.46 285.96 420.51 285.91 420.51 285.84
  L 420.51 219.92"
/>
<path stroke="#888888" vector-effect="non-scaling-stroke" d="
  M 224.81 260.17
  C 224.81 255.46 220.99 251.64 216.28 251.64
  C 211.57 251.64 207.75 255.46 207.75 260.17
  C 207.75 264.88 211.57 268.70 216.28 268.70
  C 220.99 268.70 224.81 264.88 224.81 260.17"
/>
<path stroke="#888888" vector-effect="non-scaling-stroke" d="
  M 240.94 264.88
  Q 240.93 265.91 240.32 265.08
  L 231.41 253.02
  Q 228.84 249.55 228.78 253.87
  Q 228.70 259.78 228.70 267.75
  Q 228.70 268.90 230.13 268.46
  C 230.35 268.39 230.50 268.19 230.50 267.96
  L 230.50 254.50
  Q 230.50 253.91 230.83 254.40
  Q 235.09 260.76 239.08 266.09
  Q 239.15 266.19 239.71 267.09
  Q 240.45 268.28 241.88 268.71
  C 242.19 268.80 242.50 268.57 242.50 268.25
  L 242.50 252.50
  C 242.50 252.15 242.33 251.85 242.07 251.75
  Q 241.61 251.58 241.31 251.90
  Q 241.06 252.16 241.06 252.80
  Q 241.00 259.10 240.94 264.88"
/>
<path stroke="#888888" vector-effect="non-scaling-stroke" d="
  M 256.15 267.17
  Q 253.17 267.00 250.19 266.84
  C 249.90 266.82 249.67 266.60 249.67 266.32
  L 249.49 252.50
  C 249.48 252.15 249.32 251.86 249.07 251.74
  Q 248.26 251.36 248.06 252.31
  Q 247.56 254.71 248.16 267.81
  C 248.18 268.11 248.41 268.35 248.69 268.35
  L 256.19 268.46
  C 256.56 268.47 256.87 268.30 257.00 268.04
  Q 257.16 267.70 256.90 267.43
  Q 256.68 267.19 256.15 267.17"
/>
<path stroke="#888888" vector-effect="non-scaling-stroke" d="
  M 262.0236 252.3615
  C 262.02 252.03 261.76 251.76 261.4246 251.7605
  L 260.8646 251.7595
  C 260.53 251.76 260.26 252.03 260.2636 252.3585
  L 260.2364 267.8985
  C 260.24 268.23 260.50 268.50 260.8354 268.4995
  L 261.3954 268.5005
  C 261.73 268.50 262.00 268.23 261.9964 267.9015
  L 262.0236 252.3615"
/>
<path stroke="#888888" vector-effect="non-scaling-stroke" d="
  M 269.95 255.70
  L 278.82 267.77
  Q 281.01 270.76 281.00 267.02
  L 280.94 252.56
  C 280.94 252.23 280.77 251.94 280.50 251.81
  Q 279.36 251.27 279.39 252.75
  Q 279.50 258.62 279.50 264.82
  Q 279.50 266.10 278.76 265.06
  Q 274.78 259.48 270.61 253.67
  Q 269.69 252.38 268.27 251.76
  C 267.84 251.57 267.36 251.86 267.32 252.32
  Q 266.69 260.47 267.21 267.75
  C 267.24 268.13 267.39 268.44 267.60 268.59
  Q 268.01 268.89 268.44 268.63
  C 268.69 268.49 268.84 268.17 268.84 267.81
  L 268.91 256.04
  Q 268.93 254.31 269.95 255.70"
/>
<path stroke="#888888" vector-effect="non-scaling-stroke" d="
  M 288.04 266.43
  L 288.04 261.32
  C 288.04 261.03 288.27 260.80 288.56 260.80
  L 295.75 260.74
  C 296.09 260.74 296.39 260.59 296.54 260.35
  Q 297.28 259.15 295.50 259.19
  Q 292.38 259.25 288.52 259.25
  C 288.23 259.25 288.00 259.02 288.00 258.73
  L 288.00 253.77
  C 288.00 253.48 288.23 253.25 288.52 253.25
  Q 292.63 253.25 296.50 253.37
  Q 297.78 253.42 297.57 252.30
  C 297.52 252.01 297.25 251.80 296.94 251.80
  L 287.12 251.75
  C 286.64 251.74 286.25 252.14 286.25 252.62
  L 286.25 267.81
  C 286.25 268.19 286.56 268.50 286.94 268.50
  Q 292.13 268.50 297.25 268.50
  Q 298.55 268.50 298.01 267.43
  C 297.88 267.17 297.59 267.01 297.26 267.00
  L 288.57 266.95
  C 288.28 266.95 288.04 266.72 288.04 266.43"
/>
<path stroke="#888888" vector-effect="non-scaling-stroke" d="
  M 253.31 143.26
  C 253.32 142.98 253.09 142.75 252.81 142.75
  L 251.50 142.75
  C 251.20 142.75 250.93 142.95 250.85 143.23
  Q 249.65 147.39 252.84 149.72
  Q 253.24 150.01 253.24 149.50
  L 253.31 143.26"
/>
<path stroke="#888888" vector-effect="non-scaling-stroke" d="
  M 258.5023 143.2078
  C 258.50 142.97 258.31 142.78 258.0715 142.7786
  L 256.4315 142.7814
  C 256.19 142.78 256.00 142.97 256.0023 143.2122
  L 256.0177 152.0722
  C 256.02 152.31 256.21 152.50 256.4485 152.5014
  L 258.0885 152.4986
  C 258.33 152.50 258.52 152.31 258.5177 152.0678
  L 258.5023 143.2078"
/>
<path stroke="#888888" vector-effect="non-scaling-stroke" d="
  M 253.68 155.12
  L 248.38 149.83
  C 248.27 149.72 248.16 149.38 248.08 148.94
  L 247.88 147.78
  C 247.83 147.50 247.55 147.30 247.20 147.29
  L 241.92 147.26
  Q 241.39 147.26 241.76 147.64
  L 261.82 168.19
  C 262.33 168.71 263.01 169.00 263.71 169.00
  L 287.81 169.00
  Q 289.10 169.00 288.20 168.07
  L 268.60 147.87
  C 268.34 147.60 268.03 147.44 267.75 147.43
  L 261.80 147.28
  C 261.53 147.27 261.30 147.51 261.29 147.82
  Q 261.15 151.15 261.25 152.00
  Q 261.69 155.62 258.50 155.58
  Q 256.53 155.55 254.57 155.46
  C 254.20 155.45 253.88 155.32 253.68 155.12"
/>
<path stroke="#888888" vector-effect="non-scaling-stroke" d="
  M 217.93 167.63
  Q 215.92 169.56 220.26 169.06
  C 220.58 169.02 220.88 168.88 221.11 168.65
  L 238.66 150.86
  C 238.88 150.64 238.89 150.29 238.68 150.12
  L 236.95 148.73
  C 236.73 148.56 236.39 148.61 236.14 148.86
  Q 227.40 157.66 218.90 166.70
  Q 218.85 166.74 217.93 167.63"
/>
<path stroke="#888888" vector-effect="non-scaling-stroke" d="
  M 155.55 208.33
  Q 154.12 207.65 151.92 208.08
  C 151.62 208.14 151.40 208.39 151.39 208.69
  L 151.31 215.76
  C 151.30 216.20 151.68 216.56 152.15 216.56
  Q 157.89 216.57 157.73 211.66
  Q 157.66 209.33 155.55 208.33"
/>
<path stroke="#888888" vector-effect="non-scaling-stroke" d="
  M 178.85 215.69
  Q 174.74 214.63 174.57 219.70
  C 174.56 219.99 174.76 220.24 175.05 220.30
  Q 176.58 220.62 178.16 220.56
  Q 178.31 220.55 179.83 220.62
  Q 182.07 220.71 180.89 217.53
  C 180.55 216.62 179.79 215.93 178.85 215.69"
/>
<path stroke="#888888" vector-effect="non-scaling-stroke" d="
  M 284.0768 230.6300
  C 286.16 230.63 287.86 227.25 287.8700 223.0666
  C 287.88 218.89 286.19 215.49 284.1032 215.4900
  C 282.02 215.49 280.32 218.87 280.3100 223.0534
  C 280.30 227.23 281.99 230.63 284.0768 230.6300"
/>
<path stroke="#888888" vector-effect="non-scaling-stroke" d="
  M 348.26 216.68
  Q 347.17 218.39 347.25 219.94
  C 347.27 220.23 347.51 220.45 347.81 220.46
  L 353.31 220.50
  C 353.68 220.50 353.98 220.20 353.99 219.82
  Q 354.08 214.93 350.04 215.53
  C 349.31 215.64 348.66 216.06 348.26 216.68"
/>
<path stroke="#888888" vector-effect="non-scaling-stroke" d="
  M 223.3622 259.5360
  C 223.03 255.80 219.63 253.04 215.7655 253.3869
  C 211.90 253.73 209.04 257.04 209.3778 260.7840
  C 209.71 264.52 213.11 267.28 216.9745 266.9331
  C 220.84 266.59 223.70 263.28 223.3622 259.5360"
/>
</g>
<path fill="#ffffff" d="
  M 254.56 14.44
  Q 257.58 14.65 260.79 15.83
  Q 262.85 16.58 266.43 18.64
  Q 336.72 59.12 406.81 99.94
  Q 412.20 103.08 415.67 107.07
  Q 419.69 111.69 420.25 118.50
  Q 420.71 124.11 420.71 125.75
  Q 420.75 206.50 420.69 287.25
  Q 420.68 298.78 411.94 305.94
  Q 410.43 307.17 405.05 310.29
  Q 339.06 348.48 272.94 386.44
  Q 266.30 390.24 262.94 391.94
  Q 256.66 395.09 250.00 394.00
  Q 245.82 393.31 241.87 391.39
  Q 241.53 391.23 234.52 387.20
  Q 169.52 349.88 104.72 312.22
  Q 94.50 306.28 92.48 304.42
  Q 86.67 299.07 85.50 291.00
  Q 85.14 288.48 85.10 278.00
  Q 84.76 173.63 85.25 121.50
  Q 85.38 107.96 97.38 100.93
  Q 166.12 60.64 235.23 20.99
  Q 242.90 16.59 244.23 16.06
  Q 249.20 14.05 254.56 14.44
  Z
  M 261.38 142.70
  Q 261.48 141.40 260.81 140.40
  C 260.64 140.15 260.34 139.98 260.00 139.95
  Q 256.06 139.61 252.11 139.72
  Q 252.04 139.72 250.41 139.66
  Q 247.52 139.55 248.00 142.74
  C 248.04 143.01 247.83 143.25 247.56 143.25
  Q 243.25 143.25 239.25 143.25
  Q 236.56 143.25 234.86 144.33
  Q 234.68 144.45 231.79 147.33
  Q 216.21 162.90 210.06 170.06
  Q 209.08 171.21 210.37 172.43
  C 210.59 172.64 210.90 172.77 211.24 172.81
  Q 215.56 173.33 217.00 173.00
  Q 220.26 172.24 219.43 175.81
  C 219.28 176.44 219.68 177.07 220.31 177.21
  Q 222.96 177.80 222.21 174.01
  Q 221.84 172.18 223.16 170.83
  L 240.57 152.91
  C 240.77 152.71 241.09 152.71 241.29 152.91
  Q 250.09 162.04 258.81 170.94
  Q 261.03 173.20 263.44 173.11
  C 263.71 173.10 263.94 173.30 263.95 173.56
  L 264.05 176.44
  C 264.06 176.75 264.25 177.02 264.54 177.12
  Q 267.72 178.24 266.97 174.35
  C 266.84 173.65 267.37 173.00 268.09 173.00
  L 284.15 173.00
  C 285.11 173.00 285.82 173.89 285.60 174.82
  Q 284.85 178.04 288.02 177.00
  C 288.31 176.90 288.51 176.59 288.52 176.23
  L 288.59 173.67
  C 288.60 173.39 288.84 173.16 289.17 173.12
  Q 290.86 172.93 292.55 172.96
  Q 293.82 172.99 294.42 172.72
  Q 295.55 172.20 295.61 171.04
  Q 295.67 170.05 294.58 168.91
  Q 282.54 156.19 270.11 143.85
  C 269.87 143.61 269.56 143.47 269.25 143.46
  L 261.81 143.18
  C 261.56 143.17 261.36 142.95 261.38 142.70
  Z
  M 239.05 173.79
  L 242.60 173.75
  C 243.05 173.74 243.38 174.18 243.28 174.63
  Q 242.56 177.76 245.19 177.30
  C 245.50 177.25 245.75 177.01 245.82 176.71
  Q 246.42 174.29 245.72 171.91
  C 245.63 171.62 245.39 171.40 245.08 171.34
  Q 240.83 170.54 236.56 171.23
  C 236.24 171.28 235.97 171.48 235.86 171.76
  Q 235.52 172.56 235.47 173.42
  Q 235.42 174.20 235.37 175.57
  Q 235.28 178.07 237.96 177.12
  C 238.25 177.02 238.45 176.75 238.46 176.44
  L 238.54 174.31
  C 238.55 174.02 238.78 173.79 239.05 173.79
  Z
  M 294.91 180.61
  C 294.91 179.84 294.28 179.21 293.51 179.21
  L 211.99 179.21
  C 211.22 179.21 210.59 179.84 210.59 180.61
  L 210.59 180.67
  C 210.59 181.44 211.22 182.07 211.99 182.07
  L 293.51 182.07
  C 294.28 182.07 294.91 181.44 294.91 180.67
  L 294.91 180.61
  Z
  M 151.79 221.45
  Q 152.55 221.33 153.19 221.59
  Q 153.84 221.86 154.29 222.88
  Q 156.91 228.90 160.30 234.51
  C 160.47 234.78 160.77 234.92 161.05 234.84
  L 165.23 233.68
  C 165.64 233.56 165.83 233.08 165.62 232.70
  L 159.31 221.24
  C 159.10 220.87 159.19 220.40 159.52 220.14
  Q 164.47 216.34 163.81 211.19
  Q 163.31 207.24 160.95 205.23
  Q 159.18 203.73 155.16 203.41
  Q 151.05 203.08 146.28 203.31
  C 145.71 203.34 145.26 203.80 145.26 204.37
  L 145.43 233.56
  C 145.43 233.88 145.66 234.14 145.94 234.14
  L 150.57 234.14
  C 150.85 234.14 151.07 233.88 151.08 233.56
  L 151.31 222.06
  C 151.32 221.75 151.52 221.50 151.79 221.45
  Z
  M 262.43 221.30
  L 262.67 233.56
  C 262.68 233.89 262.90 234.15 263.18 234.15
  L 267.75 234.10
  C 268.03 234.09 268.26 233.83 268.27 233.49
  Q 268.81 218.72 268.33 203.94
  C 268.32 203.62 268.09 203.37 267.82 203.36
  L 263.36 203.33
  C 262.89 203.33 262.50 203.75 262.50 204.26
  L 262.50 215.23
  C 262.50 215.52 262.27 215.75 261.98 215.75
  L 254.31 215.75
  C 254.00 215.75 253.75 215.50 253.75 215.19
  L 253.75 203.91
  C 253.75 203.55 253.45 203.25 253.09 203.25
  L 248.64 203.25
  C 248.15 203.25 247.75 203.64 247.76 204.12
  L 247.93 233.56
  C 247.93 233.88 248.16 234.14 248.44 234.14
  L 253.07 234.14
  C 253.35 234.14 253.58 233.88 253.59 233.55
  L 253.73 221.43
  C 253.74 221.05 254.03 220.75 254.38 220.76
  L 261.94 220.80
  C 262.21 220.80 262.43 221.02 262.43 221.30
  Z
  M 224.27 228.94
  L 224.04 216.72
  C 224.03 216.22 224.51 215.84 225.03 215.95
  Q 230.02 217.03 229.62 212.69
  C 229.59 212.37 229.35 212.12 229.06 212.12
  L 224.75 212.05
  C 224.33 212.04 224.00 211.73 223.99 211.33
  L 223.95 205.56
  C 223.95 205.27 223.73 205.03 223.45 205.00
  Q 221.10 204.78 218.94 205.52
  C 218.51 205.67 218.21 206.12 218.20 206.65
  L 218.08 211.52
  C 218.07 211.78 217.81 211.96 217.51 211.92
  Q 212.72 211.23 214.54 215.54
  C 214.64 215.77 214.91 215.94 215.25 215.96
  L 217.77 216.14
  C 218.04 216.16 218.24 216.43 218.23 216.75
  Q 217.94 224.25 218.68 231.08
  Q 218.98 233.85 221.67 234.56
  Q 225.85 235.66 229.63 233.79
  C 229.91 233.65 230.09 233.37 230.09 233.07
  Q 230.09 231.50 229.12 229.44
  C 228.98 229.15 228.62 229.03 228.33 229.18
  Q 226.70 230.06 224.79 229.58
  C 224.49 229.50 224.28 229.24 224.27 228.94
  Z
  M 175.05 224.55
  L 186.56 224.51
  C 187.03 224.51 187.41 224.15 187.44 223.68
  Q 187.70 218.76 185.76 215.38
  Q 183.63 211.65 179.33 211.22
  Q 176.18 210.91 173.51 212.68
  Q 171.21 214.20 169.96 217.11
  Q 167.91 221.90 169.17 227.32
  Q 170.89 234.75 178.50 235.00
  Q 182.47 235.13 186.12 233.07
  C 186.40 232.91 186.58 232.62 186.58 232.31
  Q 186.57 230.68 185.58 229.39
  C 185.39 229.15 185.07 229.04 184.76 229.11
  Q 183.33 229.44 181.91 229.84
  Q 180.13 230.33 179.04 230.26
  Q 174.50 229.94 174.55 225.06
  C 174.55 224.78 174.77 224.56 175.05 224.55
  Z
  M 198.64 213.41
  Q 197.43 214.53 197.26 212.88
  Q 197.03 210.57 194.97 211.44
  Q 193.65 211.99 192.29 212.42
  C 192.02 212.51 191.85 212.78 191.90 213.06
  Q 192.73 217.92 192.50 223.50
  Q 192.32 227.85 192.66 233.57
  C 192.68 233.87 192.90 234.11 193.17 234.12
  L 197.69 234.23
  C 197.97 234.24 198.19 233.99 198.20 233.68
  Q 198.28 228.03 198.26 222.38
  Q 198.25 218.67 198.25 218.63
  Q 198.69 216.28 201.64 216.01
  Q 204.72 215.73 204.75 218.91
  L 204.92 233.56
  C 204.92 233.88 205.15 234.14 205.43 234.14
  L 209.82 234.14
  C 210.09 234.14 210.32 233.89 210.33 233.57
  Q 210.64 225.91 210.50 218.25
  Q 210.45 215.38 209.27 213.51
  Q 208.08 211.64 205.41 211.32
  Q 201.41 210.83 198.64 213.41
  Z
  M 284.0900 235.1300
  C 289.56 235.13 293.99 229.74 293.9900 223.0800
  C 293.99 216.42 289.56 211.03 284.0900 211.0300
  C 278.62 211.03 274.19 216.42 274.1900 223.0800
  C 274.19 229.74 278.62 235.13 284.0900 235.1300
  Z
  M 311.99 233.06
  Q 312.13 233.85 312.59 234.44
  C 312.78 234.68 313.10 234.80 313.44 234.76
  Q 315.50 234.52 317.26 233.46
  C 317.51 233.31 317.63 232.99 317.54 232.70
  Q 317.00 230.87 317.00 230.00
  Q 317.00 221.00 317.00 212.07
  C 317.00 211.71 316.71 211.42 316.40 211.48
  L 311.76 212.35
  C 311.50 212.40 311.31 212.70 311.30 213.06
  L 311.25 228.00
  C 311.25 228.34 311.12 228.65 310.89 228.86
  Q 308.64 230.98 306.18 229.95
  C 305.31 229.59 304.75 228.74 304.75 227.80
  L 304.75 212.24
  C 304.75 211.68 304.29 211.24 303.79 211.34
  L 299.55 212.16
  C 299.27 212.21 299.06 212.49 299.06 212.82
  Q 298.96 220.91 299.05 229.00
  Q 299.10 233.85 303.00 234.75
  Q 306.97 235.67 311.51 232.84
  C 311.70 232.72 311.95 232.84 311.99 233.06
  Z
  M 323.94 214.19
  Q 319.60 220.92 326.87 224.32
  Q 328.40 225.04 329.93 225.74
  Q 331.56 226.49 332.12 227.34
  Q 333.05 228.74 331.65 229.84
  Q 330.83 230.49 329.54 230.43
  Q 326.53 230.27 323.86 228.81
  C 323.60 228.67 323.28 228.72 323.11 228.93
  Q 321.95 230.34 322.02 232.19
  C 322.03 232.49 322.22 232.78 322.51 232.93
  Q 326.33 234.93 330.00 235.00
  Q 333.68 235.07 335.86 232.67
  Q 337.83 230.50 337.62 227.25
  Q 337.27 221.86 331.19 220.56
  Q 327.66 219.81 327.98 217.06
  C 328.01 216.75 328.21 216.48 328.51 216.36
  Q 331.80 214.96 335.05 216.52
  C 335.34 216.66 335.67 216.62 335.88 216.43
  Q 337.25 215.13 337.07 213.24
  C 337.04 212.94 336.84 212.67 336.54 212.55
  Q 333.30 211.17 329.75 211.27
  Q 325.74 211.39 323.94 214.19
  Z
  M 344.44 214.19
  Q 339.93 219.99 341.86 227.58
  Q 343.65 234.60 351.01 234.83
  Q 355.06 234.95 358.56 233.25
  C 359.09 232.99 359.39 232.41 359.28 231.82
  Q 358.57 227.96 355.46 229.35
  Q 348.80 232.32 346.99 225.71
  C 346.83 225.13 347.25 224.56 347.85 224.55
  L 359.59 224.50
  C 359.95 224.50 360.24 224.22 360.25 223.86
  Q 360.28 220.80 359.64 218.17
  Q 357.86 210.88 350.26 211.35
  Q 346.46 211.59 344.44 214.19
  Z
  M 420.51 219.92
  C 420.51 219.85 420.46 219.80 420.39 219.80
  L 420.37 219.80
  C 420.30 219.80 420.25 219.85 420.25 219.92
  L 420.25 285.84
  C 420.25 285.91 420.30 285.96 420.37 285.96
  L 420.39 285.96
  C 420.46 285.96 420.51 285.91 420.51 285.84
  L 420.51 219.92
  Z
  M 224.81 260.17
  C 224.81 255.46 220.99 251.64 216.28 251.64
  C 211.57 251.64 207.75 255.46 207.75 260.17
  C 207.75 264.88 211.57 268.70 216.28 268.70
  C 220.99 268.70 224.81 264.88 224.81 260.17
  Z
  M 240.94 264.88
  Q 240.93 265.91 240.32 265.08
  L 231.41 253.02
  Q 228.84 249.55 228.78 253.87
  Q 228.70 259.78 228.70 267.75
  Q 228.70 268.90 230.13 268.46
  C 230.35 268.39 230.50 268.19 230.50 267.96
  L 230.50 254.50
  Q 230.50 253.91 230.83 254.40
  Q 235.09 260.76 239.08 266.09
  Q 239.15 266.19 239.71 267.09
  Q 240.45 268.28 241.88 268.71
  C 242.19 268.80 242.50 268.57 242.50 268.25
  L 242.50 252.50
  C 242.50 252.15 242.33 251.85 242.07 251.75
  Q 241.61 251.58 241.31 251.90
  Q 241.06 252.16 241.06 252.80
  Q 241.00 259.10 240.94 264.88
  Z
  M 256.15 267.17
  Q 253.17 267.00 250.19 266.84
  C 249.90 266.82 249.67 266.60 249.67 266.32
  L 249.49 252.50
  C 249.48 252.15 249.32 251.86 249.07 251.74
  Q 248.26 251.36 248.06 252.31
  Q 247.56 254.71 248.16 267.81
  C 248.18 268.11 248.41 268.35 248.69 268.35
  L 256.19 268.46
  C 256.56 268.47 256.87 268.30 257.00 268.04
  Q 257.16 267.70 256.90 267.43
  Q 256.68 267.19 256.15 267.17
  Z
  M 262.0236 252.3615
  C 262.02 252.03 261.76 251.76 261.4246 251.7605
  L 260.8646 251.7595
  C 260.53 251.76 260.26 252.03 260.2636 252.3585
  L 260.2364 267.8985
  C 260.24 268.23 260.50 268.50 260.8354 268.4995
  L 261.3954 268.5005
  C 261.73 268.50 262.00 268.23 261.9964 267.9015
  L 262.0236 252.3615
  Z
  M 269.95 255.70
  L 278.82 267.77
  Q 281.01 270.76 281.00 267.02
  L 280.94 252.56
  C 280.94 252.23 280.77 251.94 280.50 251.81
  Q 279.36 251.27 279.39 252.75
  Q 279.50 258.62 279.50 264.82
  Q 279.50 266.10 278.76 265.06
  Q 274.78 259.48 270.61 253.67
  Q 269.69 252.38 268.27 251.76
  C 267.84 251.57 267.36 251.86 267.32 252.32
  Q 266.69 260.47 267.21 267.75
  C 267.24 268.13 267.39 268.44 267.60 268.59
  Q 268.01 268.89 268.44 268.63
  C 268.69 268.49 268.84 268.17 268.84 267.81
  L 268.91 256.04
  Q 268.93 254.31 269.95 255.70
  Z
  M 288.04 266.43
  L 288.04 261.32
  C 288.04 261.03 288.27 260.80 288.56 260.80
  L 295.75 260.74
  C 296.09 260.74 296.39 260.59 296.54 260.35
  Q 297.28 259.15 295.50 259.19
  Q 292.38 259.25 288.52 259.25
  C 288.23 259.25 288.00 259.02 288.00 258.73
  L 288.00 253.77
  C 288.00 253.48 288.23 253.25 288.52 253.25
  Q 292.63 253.25 296.50 253.37
  Q 297.78 253.42 297.57 252.30
  C 297.52 252.01 297.25 251.80 296.94 251.80
  L 287.12 251.75
  C 286.64 251.74 286.25 252.14 286.25 252.62
  L 286.25 267.81
  C 286.25 268.19 286.56 268.50 286.94 268.50
  Q 292.13 268.50 297.25 268.50
  Q 298.55 268.50 298.01 267.43
  C 297.88 267.17 297.59 267.01 297.26 267.00
  L 288.57 266.95
  C 288.28 266.95 288.04 266.72 288.04 266.43
  Z"
/>
<path fill="#111111" d="
  M 261.81 143.18
  L 269.25 143.46
  C 269.56 143.47 269.87 143.61 270.11 143.85
  Q 282.54 156.19 294.58 168.91
  Q 295.67 170.05 295.61 171.04
  Q 295.55 172.20 294.42 172.72
  Q 293.82 172.99 292.55 172.96
  Q 290.86 172.93 289.17 173.12
  C 288.84 173.16 288.60 173.39 288.59 173.67
  L 288.52 176.23
  C 288.51 176.59 288.31 176.90 288.02 177.00
  Q 284.85 178.04 285.60 174.82
  C 285.82 173.89 285.11 173.00 284.15 173.00
  L 268.09 173.00
  C 267.37 173.00 266.84 173.65 266.97 174.35
  Q 267.72 178.24 264.54 177.12
  C 264.25 177.02 264.06 176.75 264.05 176.44
  L 263.95 173.56
  C 263.94 173.30 263.71 173.10 263.44 173.11
  Q 261.03 173.20 258.81 170.94
  Q 250.09 162.04 241.29 152.91
  C 241.09 152.71 240.77 152.71 240.57 152.91
  L 223.16 170.83
  Q 221.84 172.18 222.21 174.01
  Q 222.96 177.80 220.31 177.21
  C 219.68 177.07 219.28 176.44 219.43 175.81
  Q 220.26 172.24 217.00 173.00
  Q 215.56 173.33 211.24 172.81
  C 210.90 172.77 210.59 172.64 210.37 172.43
  Q 209.08 171.21 210.06 170.06
  Q 216.21 162.90 231.79 147.33
  Q 234.68 144.45 234.86 144.33
  Q 236.56 143.25 239.25 143.25
  Q 243.25 143.25 247.56 143.25
  C 247.83 143.25 248.04 143.01 248.00 142.74
  Q 247.52 139.55 250.41 139.66
  Q 252.04 139.72 252.11 139.72
  Q 256.06 139.61 260.00 139.95
  C 260.34 139.98 260.64 140.15 260.81 140.40
  Q 261.48 141.40 261.38 142.70
  C 261.36 142.95 261.56 143.17 261.81 143.18
  Z
  M 253.31 143.26
  C 253.32 142.98 253.09 142.75 252.81 142.75
  L 251.50 142.75
  C 251.20 142.75 250.93 142.95 250.85 143.23
  Q 249.65 147.39 252.84 149.72
  Q 253.24 150.01 253.24 149.50
  L 253.31 143.26
  Z
  M 258.5023 143.2078
  C 258.50 142.97 258.31 142.78 258.0715 142.7786
  L 256.4315 142.7814
  C 256.19 142.78 256.00 142.97 256.0023 143.2122
  L 256.0177 152.0722
  C 256.02 152.31 256.21 152.50 256.4485 152.5014
  L 258.0885 152.4986
  C 258.33 152.50 258.52 152.31 258.5177 152.0678
  L 258.5023 143.2078
  Z
  M 253.68 155.12
  L 248.38 149.83
  C 248.27 149.72 248.16 149.38 248.08 148.94
  L 247.88 147.78
  C 247.83 147.50 247.55 147.30 247.20 147.29
  L 241.92 147.26
  Q 241.39 147.26 241.76 147.64
  L 261.82 168.19
  C 262.33 168.71 263.01 169.00 263.71 169.00
  L 287.81 169.00
  Q 289.10 169.00 288.20 168.07
  L 268.60 147.87
  C 268.34 147.60 268.03 147.44 267.75 147.43
  L 261.80 147.28
  C 261.53 147.27 261.30 147.51 261.29 147.82
  Q 261.15 151.15 261.25 152.00
  Q 261.69 155.62 258.50 155.58
  Q 256.53 155.55 254.57 155.46
  C 254.20 155.45 253.88 155.32 253.68 155.12
  Z
  M 217.93 167.63
  Q 215.92 169.56 220.26 169.06
  C 220.58 169.02 220.88 168.88 221.11 168.65
  L 238.66 150.86
  C 238.88 150.64 238.89 150.29 238.68 150.12
  L 236.95 148.73
  C 236.73 148.56 236.39 148.61 236.14 148.86
  Q 227.40 157.66 218.90 166.70
  Q 218.85 166.74 217.93 167.63
  Z"
/>
<path fill="#ffffff" d="
  M 253.31 143.26
  L 253.24 149.50
  Q 253.24 150.01 252.84 149.72
  Q 249.65 147.39 250.85 143.23
  C 250.93 142.95 251.20 142.75 251.50 142.75
  L 252.81 142.75
  C 253.09 142.75 253.32 142.98 253.31 143.26
  Z"
/>
<rect fill="#ffffff" x="-1.25" y="-4.86" transform="translate(257.26,147.64) rotate(-0.1)" width="2.50" height="9.72" rx="0.43"/>
<path fill="#ffffff" d="
  M 254.57 155.46
  Q 256.53 155.55 258.50 155.58
  Q 261.69 155.62 261.25 152.00
  Q 261.15 151.15 261.29 147.82
  C 261.30 147.51 261.53 147.27 261.80 147.28
  L 267.75 147.43
  C 268.03 147.44 268.34 147.60 268.60 147.87
  L 288.20 168.07
  Q 289.10 169.00 287.81 169.00
  L 263.71 169.00
  C 263.01 169.00 262.33 168.71 261.82 168.19
  L 241.76 147.64
  Q 241.39 147.26 241.92 147.26
  L 247.20 147.29
  C 247.55 147.30 247.83 147.50 247.88 147.78
  L 248.08 148.94
  C 248.16 149.38 248.27 149.72 248.38 149.83
  L 253.68 155.12
  C 253.88 155.32 254.20 155.45 254.57 155.46
  Z"
/>
<path fill="#ffffff" d="
  M 218.90 166.70
  Q 227.40 157.66 236.14 148.86
  C 236.39 148.61 236.73 148.56 236.95 148.73
  L 238.68 150.12
  C 238.89 150.29 238.88 150.64 238.66 150.86
  L 221.11 168.65
  C 220.88 168.88 220.58 169.02 220.26 169.06
  Q 215.92 169.56 217.93 167.63
  Q 218.85 166.74 218.90 166.70
  Z"
/>
<path fill="#111111" d="
  M 238.54 174.31
  L 238.46 176.44
  C 238.45 176.75 238.25 177.02 237.96 177.12
  Q 235.28 178.07 235.37 175.57
  Q 235.42 174.20 235.47 173.42
  Q 235.52 172.56 235.86 171.76
  C 235.97 171.48 236.24 171.28 236.56 171.23
  Q 240.83 170.54 245.08 171.34
  C 245.39 171.40 245.63 171.62 245.72 171.91
  Q 246.42 174.29 245.82 176.71
  C 245.75 177.01 245.50 177.25 245.19 177.30
  Q 242.56 177.76 243.28 174.63
  C 243.38 174.18 243.05 173.74 242.60 173.75
  L 239.05 173.79
  C 238.78 173.79 238.55 174.02 238.54 174.31
  Z"
/>
<rect fill="#111111" x="210.59" y="179.21" width="84.32" height="2.86" rx="1.40"/>
<path fill="#111111" d="
  M 151.31 222.06
  L 151.08 233.56
  C 151.07 233.88 150.85 234.14 150.57 234.14
  L 145.94 234.14
  C 145.66 234.14 145.43 233.88 145.43 233.56
  L 145.26 204.37
  C 145.26 203.80 145.71 203.34 146.28 203.31
  Q 151.05 203.08 155.16 203.41
  Q 159.18 203.73 160.95 205.23
  Q 163.31 207.24 163.81 211.19
  Q 164.47 216.34 159.52 220.14
  C 159.19 220.40 159.10 220.87 159.31 221.24
  L 165.62 232.70
  C 165.83 233.08 165.64 233.56 165.23 233.68
  L 161.05 234.84
  C 160.77 234.92 160.47 234.78 160.30 234.51
  Q 156.91 228.90 154.29 222.88
  Q 153.84 221.86 153.19 221.59
  Q 152.55 221.33 151.79 221.45
  C 151.52 221.50 151.32 221.75 151.31 222.06
  Z
  M 155.55 208.33
  Q 154.12 207.65 151.92 208.08
  C 151.62 208.14 151.40 208.39 151.39 208.69
  L 151.31 215.76
  C 151.30 216.20 151.68 216.56 152.15 216.56
  Q 157.89 216.57 157.73 211.66
  Q 157.66 209.33 155.55 208.33
  Z"
/>
<path fill="#111111" d="
  M 261.94 220.80
  L 254.38 220.76
  C 254.03 220.75 253.74 221.05 253.73 221.43
  L 253.59 233.55
  C 253.58 233.88 253.35 234.14 253.07 234.14
  L 248.44 234.14
  C 248.16 234.14 247.93 233.88 247.93 233.56
  L 247.76 204.12
  C 247.75 203.64 248.15 203.25 248.64 203.25
  L 253.09 203.25
  C 253.45 203.25 253.75 203.55 253.75 203.91
  L 253.75 215.19
  C 253.75 215.50 254.00 215.75 254.31 215.75
  L 261.98 215.75
  C 262.27 215.75 262.50 215.52 262.50 215.23
  L 262.50 204.26
  C 262.50 203.75 262.89 203.33 263.36 203.33
  L 267.82 203.36
  C 268.09 203.37 268.32 203.62 268.33 203.94
  Q 268.81 218.72 268.27 233.49
  C 268.26 233.83 268.03 234.09 267.75 234.10
  L 263.18 234.15
  C 262.90 234.15 262.68 233.89 262.67 233.56
  L 262.43 221.30
  C 262.43 221.02 262.21 220.80 261.94 220.80
  Z"
/>
<path fill="#111111" d="
  M 224.79 229.58
  Q 226.70 230.06 228.33 229.18
  C 228.62 229.03 228.98 229.15 229.12 229.44
  Q 230.09 231.50 230.09 233.07
  C 230.09 233.37 229.91 233.65 229.63 233.79
  Q 225.85 235.66 221.67 234.56
  Q 218.98 233.85 218.68 231.08
  Q 217.94 224.25 218.23 216.75
  C 218.24 216.43 218.04 216.16 217.77 216.14
  L 215.25 215.96
  C 214.91 215.94 214.64 215.77 214.54 215.54
  Q 212.72 211.23 217.51 211.92
  C 217.81 211.96 218.07 211.78 218.08 211.52
  L 218.20 206.65
  C 218.21 206.12 218.51 205.67 218.94 205.52
  Q 221.10 204.78 223.45 205.00
  C 223.73 205.03 223.95 205.27 223.95 205.56
  L 223.99 211.33
  C 224.00 211.73 224.33 212.04 224.75 212.05
  L 229.06 212.12
  C 229.35 212.12 229.59 212.37 229.62 212.69
  Q 230.02 217.03 225.03 215.95
  C 224.51 215.84 224.03 216.22 224.04 216.72
  L 224.27 228.94
  C 224.28 229.24 224.49 229.50 224.79 229.58
  Z"
/>
<path fill="#ffffff" d="
  M 155.55 208.33
  Q 157.66 209.33 157.73 211.66
  Q 157.89 216.57 152.15 216.56
  C 151.68 216.56 151.30 216.20 151.31 215.76
  L 151.39 208.69
  C 151.40 208.39 151.62 208.14 151.92 208.08
  Q 154.12 207.65 155.55 208.33
  Z"
/>
<path fill="#111111" d="
  M 174.55 225.06
  Q 174.50 229.94 179.04 230.26
  Q 180.13 230.33 181.91 229.84
  Q 183.33 229.44 184.76 229.11
  C 185.07 229.04 185.39 229.15 185.58 229.39
  Q 186.57 230.68 186.58 232.31
  C 186.58 232.62 186.40 232.91 186.12 233.07
  Q 182.47 235.13 178.50 235.00
  Q 170.89 234.75 169.17 227.32
  Q 167.91 221.90 169.96 217.11
  Q 171.21 214.20 173.51 212.68
  Q 176.18 210.91 179.33 211.22
  Q 183.63 211.65 185.76 215.38
  Q 187.70 218.76 187.44 223.68
  C 187.41 224.15 187.03 224.51 186.56 224.51
  L 175.05 224.55
  C 174.77 224.56 174.55 224.78 174.55 225.06
  Z
  M 178.85 215.69
  Q 174.74 214.63 174.57 219.70
  C 174.56 219.99 174.76 220.24 175.05 220.30
  Q 176.58 220.62 178.16 220.56
  Q 178.31 220.55 179.83 220.62
  Q 182.07 220.71 180.89 217.53
  C 180.55 216.62 179.79 215.93 178.85 215.69
  Z"
/>
<path fill="#111111" d="
  M 198.64 213.41
  Q 201.41 210.83 205.41 211.32
  Q 208.08 211.64 209.27 213.51
  Q 210.45 215.38 210.50 218.25
  Q 210.64 225.91 210.33 233.57
  C 210.32 233.89 210.09 234.14 209.82 234.14
  L 205.43 234.14
  C 205.15 234.14 204.92 233.88 204.92 233.56
  L 204.75 218.91
  Q 204.72 215.73 201.64 216.01
  Q 198.69 216.28 198.25 218.63
  Q 198.25 218.67 198.26 222.38
  Q 198.28 228.03 198.20 233.68
  C 198.19 233.99 197.97 234.24 197.69 234.23
  L 193.17 234.12
  C 192.90 234.11 192.68 233.87 192.66 233.57
  Q 192.32 227.85 192.50 223.50
  Q 192.73 217.92 191.90 213.06
  C 191.85 212.78 192.02 212.51 192.29 212.42
  Q 193.65 211.99 194.97 211.44
  Q 197.03 210.57 197.26 212.88
  Q 197.43 214.53 198.64 213.41
  Z"
/>
<path fill="#111111" d="
  M 284.0900 235.1300
  C 278.62 235.13 274.19 229.74 274.1900 223.0800
  C 274.19 216.42 278.62 211.03 284.0900 211.0300
  C 289.56 211.03 293.99 216.42 293.9900 223.0800
  C 293.99 229.74 289.56 235.13 284.0900 235.1300
  Z
  M 284.0768 230.6300
  C 286.16 230.63 287.86 227.25 287.8700 223.0666
  C 287.88 218.89 286.19 215.49 284.1032 215.4900
  C 282.02 215.49 280.32 218.87 280.3100 223.0534
  C 280.30 227.23 281.99 230.63 284.0768 230.6300
  Z"
/>
<path fill="#111111" d="
  M 311.51 232.84
  Q 306.97 235.67 303.00 234.75
  Q 299.10 233.85 299.05 229.00
  Q 298.96 220.91 299.06 212.82
  C 299.06 212.49 299.27 212.21 299.55 212.16
  L 303.79 211.34
  C 304.29 211.24 304.75 211.68 304.75 212.24
  L 304.75 227.80
  C 304.75 228.74 305.31 229.59 306.18 229.95
  Q 308.64 230.98 310.89 228.86
  C 311.12 228.65 311.25 228.34 311.25 228.00
  L 311.30 213.06
  C 311.31 212.70 311.50 212.40 311.76 212.35
  L 316.40 211.48
  C 316.71 211.42 317.00 211.71 317.00 212.07
  Q 317.00 221.00 317.00 230.00
  Q 317.00 230.87 317.54 232.70
  C 317.63 232.99 317.51 233.31 317.26 233.46
  Q 315.50 234.52 313.44 234.76
  C 313.10 234.80 312.78 234.68 312.59 234.44
  Q 312.13 233.85 311.99 233.06
  C 311.95 232.84 311.70 232.72 311.51 232.84
  Z"
/>
<path fill="#111111" d="
  M 323.94 214.19
  Q 325.74 211.39 329.75 211.27
  Q 333.30 211.17 336.54 212.55
  C 336.84 212.67 337.04 212.94 337.07 213.24
  Q 337.25 215.13 335.88 216.43
  C 335.67 216.62 335.34 216.66 335.05 216.52
  Q 331.80 214.96 328.51 216.36
  C 328.21 216.48 328.01 216.75 327.98 217.06
  Q 327.66 219.81 331.19 220.56
  Q 337.27 221.86 337.62 227.25
  Q 337.83 230.50 335.86 232.67
  Q 333.68 235.07 330.00 235.00
  Q 326.33 234.93 322.51 232.93
  C 322.22 232.78 322.03 232.49 322.02 232.19
  Q 321.95 230.34 323.11 228.93
  C 323.28 228.72 323.60 228.67 323.86 228.81
  Q 326.53 230.27 329.54 230.43
  Q 330.83 230.49 331.65 229.84
  Q 333.05 228.74 332.12 227.34
  Q 331.56 226.49 329.93 225.74
  Q 328.40 225.04 326.87 224.32
  Q 319.60 220.92 323.94 214.19
  Z"
/>
<path fill="#111111" d="
  M 344.44 214.19
  Q 346.46 211.59 350.26 211.35
  Q 357.86 210.88 359.64 218.17
  Q 360.28 220.80 360.25 223.86
  C 360.24 224.22 359.95 224.50 359.59 224.50
  L 347.85 224.55
  C 347.25 224.56 346.83 225.13 346.99 225.71
  Q 348.80 232.32 355.46 229.35
  Q 358.57 227.96 359.28 231.82
  C 359.39 232.41 359.09 232.99 358.56 233.25
  Q 355.06 234.95 351.01 234.83
  Q 343.65 234.60 341.86 227.58
  Q 339.93 219.99 344.44 214.19
  Z
  M 348.26 216.68
  Q 347.17 218.39 347.25 219.94
  C 347.27 220.23 347.51 220.45 347.81 220.46
  L 353.31 220.50
  C 353.68 220.50 353.98 220.20 353.99 219.82
  Q 354.08 214.93 350.04 215.53
  C 349.31 215.64 348.66 216.06 348.26 216.68
  Z"
/>
<path fill="#ffffff" d="
  M 178.85 215.69
  C 179.79 215.93 180.55 216.62 180.89 217.53
  Q 182.07 220.71 179.83 220.62
  Q 178.31 220.55 178.16 220.56
  Q 176.58 220.62 175.05 220.30
  C 174.76 220.24 174.56 219.99 174.57 219.70
  Q 174.74 214.63 178.85 215.69
  Z"
/>
<path fill="#ffffff" d="
  M 348.26 216.68
  C 348.66 216.06 349.31 215.64 350.04 215.53
  Q 354.08 214.93 353.99 219.82
  C 353.98 220.20 353.68 220.50 353.31 220.50
  L 347.81 220.46
  C 347.51 220.45 347.27 220.23 347.25 219.94
  Q 347.17 218.39 348.26 216.68
  Z"
/>
<ellipse fill="#ffffff" cx="0.00" cy="0.00" transform="translate(284.09,223.06) rotate(90.1)" rx="7.57" ry="3.78"/>
<rect fill="#ffffff" x="420.25" y="219.80" width="0.26" height="66.16" rx="0.12"/>
<path fill="#111111" d="
  M 224.81 260.17
  C 224.81 264.88 220.99 268.70 216.28 268.70
  C 211.57 268.70 207.75 264.88 207.75 260.17
  C 207.75 255.46 211.57 251.64 216.28 251.64
  C 220.99 251.64 224.81 255.46 224.81 260.17
  Z
  M 223.3622 259.5360
  C 223.03 255.80 219.63 253.04 215.7655 253.3869
  C 211.90 253.73 209.04 257.04 209.3778 260.7840
  C 209.71 264.52 213.11 267.28 216.9745 266.9331
  C 220.84 266.59 223.70 263.28 223.3622 259.5360
  Z"
/>
<path fill="#111111" d="
  M 240.94 264.88
  Q 241.00 259.10 241.06 252.80
  Q 241.06 252.16 241.31 251.90
  Q 241.61 251.58 242.07 251.75
  C 242.33 251.85 242.50 252.15 242.50 252.50
  L 242.50 268.25
  C 242.50 268.57 242.19 268.80 241.88 268.71
  Q 240.45 268.28 239.71 267.09
  Q 239.15 266.19 239.08 266.09
  Q 235.09 260.76 230.83 254.40
  Q 230.50 253.91 230.50 254.50
  L 230.50 267.96
  C 230.50 268.19 230.35 268.39 230.13 268.46
  Q 228.70 268.90 228.70 267.75
  Q 228.70 259.78 228.78 253.87
  Q 228.84 249.55 231.41 253.02
  L 240.32 265.08
  Q 240.93 265.91 240.94 264.88
  Z"
/>
<path fill="#111111" d="
  M 256.90 267.43
  Q 257.16 267.70 257.00 268.04
  C 256.87 268.30 256.56 268.47 256.19 268.46
  L 248.69 268.35
  C 248.41 268.35 248.18 268.11 248.16 267.81
  Q 247.56 254.71 248.06 252.31
  Q 248.26 251.36 249.07 251.74
  C 249.32 251.86 249.48 252.15 249.49 252.50
  L 249.67 266.32
  C 249.67 266.60 249.90 266.82 250.19 266.84
  Q 253.17 267.00 256.15 267.17
  Q 256.68 267.19 256.90 267.43
  Z"
/>
<rect fill="#111111" x="-0.88" y="-8.37" transform="translate(261.13,260.13) rotate(0.1)" width="1.76" height="16.74" rx="0.60"/>
<path fill="#111111" d="
  M 269.95 255.70
  Q 268.93 254.31 268.91 256.04
  L 268.84 267.81
  C 268.84 268.17 268.69 268.49 268.44 268.63
  Q 268.01 268.89 267.60 268.59
  C 267.39 268.44 267.24 268.13 267.21 267.75
  Q 266.69 260.47 267.32 252.32
  C 267.36 251.86 267.84 251.57 268.27 251.76
  Q 269.69 252.38 270.61 253.67
  Q 274.78 259.48 278.76 265.06
  Q 279.50 266.10 279.50 264.82
  Q 279.50 258.62 279.39 252.75
  Q 279.36 251.27 280.50 251.81
  C 280.77 251.94 280.94 252.23 280.94 252.56
  L 281.00 267.02
  Q 281.01 270.76 278.82 267.77
  L 269.95 255.70
  Z"
/>
<path fill="#111111" d="
  M 288.57 266.95
  L 297.26 267.00
  C 297.59 267.01 297.88 267.17 298.01 267.43
  Q 298.55 268.50 297.25 268.50
  Q 292.13 268.50 286.94 268.50
  C 286.56 268.50 286.25 268.19 286.25 267.81
  L 286.25 252.62
  C 286.25 252.14 286.64 251.74 287.12 251.75
  L 296.94 251.80
  C 297.25 251.80 297.52 252.01 297.57 252.30
  Q 297.78 253.42 296.50 253.37
  Q 292.63 253.25 288.52 253.25
  C 288.23 253.25 288.00 253.48 288.00 253.77
  L 288.00 258.73
  C 288.00 259.02 288.23 259.25 288.52 259.25
  Q 292.38 259.25 295.50 259.19
  Q 297.28 259.15 296.54 260.35
  C 296.39 260.59 296.09 260.74 295.75 260.74
  L 288.56 260.80
  C 288.27 260.80 288.04 261.03 288.04 261.32
  L 288.04 266.43
  C 288.04 266.72 288.28 266.95 288.57 266.95
  Z"
/>
<ellipse fill="#ffffff" cx="0.00" cy="0.00" transform="translate(216.37,260.16) rotate(-5.1)" rx="7.02" ry="6.80"/>
</svg>
